<?xml version="1.0" encoding="UTF-8" standalone="no"?><!-- Generator: Gravit.io --><svg xmlns="http://www.w3.org/2000/svg" xmlns:xlink="http://www.w3.org/1999/xlink" style="isolation:isolate" viewBox="0 0 40 60" width="40pt" height="60pt"><defs><clipPath id="_clipPath_9Xu4Ryn02ShPEYBFGZsk4fb6R8PGILLv"><rect width="40" height="60"/></clipPath></defs><g clip-path="url(#_clipPath_9Xu4Ryn02ShPEYBFGZsk4fb6R8PGILLv)"><path d=" M 15.223 32.702 L 11.261 32.702 L 11.261 31.247 L 12.636 31.247 C 13.305 31.247 13.848 30.704 13.848 30.034 C 13.848 29.365 13.305 28.822 12.636 28.822 L 11.261 28.822 L 11.261 27.367 L 15.223 27.367 C 15.892 27.367 16.435 26.824 16.435 26.154 C 16.435 25.484 15.892 24.942 15.223 24.942 L 10.049 24.942 C 9.379 24.942 8.836 25.484 8.836 26.154 L 8.836 33.915 C 8.836 34.584 9.379 35.127 10.049 35.127 L 15.223 35.127 C 15.892 35.127 16.435 34.584 16.435 33.915 C 16.435 33.245 15.892 32.702 15.223 32.702 L 15.223 32.702 L 15.223 32.702 Z  M 27.187 24.986 C 26.662 24.84 26.104 25.063 25.823 25.53 L 22.983 30.265 L 20.143 25.53 C 19.862 25.063 19.304 24.84 18.779 24.986 C 18.254 25.131 17.89 25.609 17.89 26.154 L 17.89 33.915 C 17.89 34.584 18.433 35.127 19.103 35.127 C 19.772 35.127 20.315 34.585 20.315 33.915 L 20.315 30.532 L 21.943 33.245 C 22.406 34.016 23.56 34.016 24.023 33.245 L 25.651 30.532 L 25.651 33.915 C 25.651 34.584 26.194 35.127 26.863 35.127 C 27.533 35.127 28.076 34.585 28.076 33.915 L 28.076 26.154 C 28.076 25.609 27.712 25.131 27.187 24.986 L 27.187 24.986 Z  M 28.336 7.034 L 6.336 7.077 L 6.336 53.035 L 38.336 53.035 L 38.336 17.035 L 28.336 7.034 L 28.336 7.034 L 28.336 7.034 Z  M 34.624 32.702 L 31.956 32.702 L 31.956 26.154 C 31.956 25.485 31.413 24.942 30.743 24.942 C 30.074 24.942 29.531 25.485 29.531 26.154 L 29.531 33.915 C 29.531 34.584 30.074 35.127 30.743 35.127 L 34.624 35.127 C 35.293 35.127 35.836 34.585 35.836 33.915 C 35.836 33.245 35.293 32.702 34.624 32.702 Z " fill-rule="evenodd" fill="rgb(255,255,255)"/></g></svg>